<svg width="239" height="70" viewBox="0 0 239 70" fill="none" xmlns="http://www.w3.org/2000/svg">
<g clip-path="url(#clip0_171_35)">
<path d="M21.9957 30.3362C21.6534 30.3362 21.311 30.2292 21.0115 29.9939L6.97529 19.3826C5.56312 17.8209 5.99105 14.2054 6.67574 14.7402L22.9799 27.448C23.686 28.0043 23.8144 29.0098 23.2581 29.7158C22.9585 30.1222 22.4878 30.3362 21.9957 30.3362Z" fill="#003559"/>
<path d="M19.6207 17.0721C19.2783 17.0721 18.936 16.9652 18.6364 16.7298L17.4168 15.8313C16.0047 14.2696 16.4326 10.654 17.1173 11.1889L20.6049 14.184C21.311 14.7402 21.4394 15.7457 20.8831 16.4517C20.5835 16.8582 20.0914 17.0721 19.6207 17.0721Z" fill="#003559"/>
<path d="M31.1106 25.7366C30.7683 25.7366 30.426 25.6296 30.1264 25.3943L22.5948 19.511C21.8887 18.9548 21.7603 17.9493 22.3166 17.2433C22.873 16.5373 23.8786 16.4089 24.5847 16.9652L32.1163 22.8484C32.8224 23.4046 32.9508 24.4101 32.3944 25.1161C32.0735 25.5226 31.6028 25.7366 31.1106 25.7366Z" fill="#003559"/>
<path d="M56.4228 25.651C55.8023 24.8594 54.5827 21.9071 53.4273 20.7304C51.2662 18.5055 49.4689 17.2005 46.345 17.2005C40.6963 17.2219 37.658 20.4951 37.5296 20.6449C36.9305 21.3081 36.9733 22.3136 37.6366 22.9126C38.2999 23.5116 39.3055 23.4688 39.9047 22.8056C39.9261 22.7842 42.9858 20.6449 45.532 20.6876C47.1795 20.709 49.7685 22.0568 50.9239 23.8111C51.9295 25.2659 53.1705 26.7848 53.1705 26.7848C53.1705 26.7848 50.1322 28.5605 49.1694 31.7054C47.8856 35.9199 51.0095 41.3967 44.0342 49.184C40.3112 53.3344 30.6827 54.8533 25.7829 52.2219L19.2355 47.2799C18.936 47.0446 18.5936 46.9376 18.2513 46.9376C17.7806 46.9376 17.2884 47.1516 16.9889 47.5581C16.4326 48.2641 16.561 49.2696 17.2671 49.8258L33.2289 62.2769C33.935 62.8331 34.3415 59.1962 32.9294 57.6345L32.3731 57.2066C33.2289 57.2066 34.0848 57.1424 34.962 57.0141C38.7278 56.5006 43.6491 53.6766 46.452 51.3233C53.6627 43.0012 51.6728 40.4554 52.3147 34.7861C52.7854 30.7427 54.1334 30.4645 56.3586 28.8814C56.9363 28.4749 58.6267 27.7048 58.6267 27.7048C58.6267 27.7048 57.0433 26.4211 56.4228 25.651Z" fill="#003559"/>
<path d="M32.8438 26.7848C27.0453 26.7848 22.3167 31.5128 22.3167 37.3105C22.3167 37.6742 22.338 38.0165 22.3808 38.3802L6.69714 26.143C5.99105 25.5868 5.58451 29.2237 6.99669 30.7854L26.168 45.4401C26.3392 45.5898 26.5318 45.7396 26.7243 45.868L27.2379 46.2744C27.409 46.4028 27.5802 46.4884 27.7728 46.5526C29.2705 47.3869 31.0037 47.8576 32.8438 47.8576C38.6423 47.8576 43.3709 43.1296 43.3709 37.3319C43.3709 31.5128 38.6423 26.7848 32.8438 26.7848ZM32.8438 44.6271C31.346 44.6271 29.9338 44.1779 28.7784 43.3863L27.9654 42.7445C26.489 41.3967 25.5475 39.4713 25.5475 37.3105C25.5475 33.2885 28.8212 29.9939 32.8652 29.9939C36.9091 29.9939 40.1828 33.2671 40.1828 37.3105C40.1828 41.3539 36.8663 44.6271 32.8438 44.6271Z" fill="#003559"/>
<path d="M64.7247 70H0V0H64.7247V70ZM2.88854 67.1119H61.8148V2.88814H2.88854V67.1119Z" fill="#003559"/>
<path d="M95.4074 19.9389C95.4074 20.6663 95.3004 21.3081 95.1079 21.9071C94.9153 22.4847 94.6371 23.0196 94.2948 23.4688C93.9525 23.9181 93.5245 24.3032 93.0324 24.6241C92.5403 24.945 92.0054 25.2231 91.4277 25.4156C90.8499 25.6296 90.2081 25.7793 89.5448 25.8863C88.8815 25.9933 88.1326 26.0361 87.3195 26.0361H81.949C81.6066 26.0361 81.3071 25.9291 81.0717 25.7366C80.8363 25.5226 80.7294 25.2017 80.7294 24.7311V7.0599C80.7294 6.61064 80.8363 6.26834 81.0717 6.0544C81.3071 5.84046 81.6066 5.75489 81.949 5.75489H87.0414C88.2824 5.75489 89.3308 5.86186 90.2081 6.0758C91.0639 6.28973 91.7914 6.61064 92.3905 7.01712C92.9896 7.44499 93.4389 7.97983 93.7385 8.62164C94.0594 9.26345 94.2092 10.0336 94.2092 10.9108C94.2092 11.4028 94.145 11.8735 94.0166 12.3013C93.8883 12.7292 93.7171 13.1357 93.4603 13.478C93.225 13.8417 92.9254 14.1412 92.5831 14.4193C92.2407 14.6974 91.8342 14.9114 91.3849 15.0825C91.9626 15.1895 92.4975 15.3606 92.9682 15.6388C93.4603 15.8955 93.8669 16.2378 94.2306 16.6443C94.5944 17.0507 94.8725 17.5428 95.0865 18.099C95.3218 18.6339 95.4074 19.2543 95.4074 19.9389ZM90.0797 11.4028C90.0797 10.9963 90.0155 10.6326 89.8871 10.3117C89.7587 9.99083 89.5662 9.71271 89.3308 9.49878C89.074 9.28484 88.7745 9.11369 88.3893 9.00672C88.0042 8.89976 87.4907 8.83557 86.8702 8.83557H84.7947V14.0984H87.0841C87.6833 14.0984 88.154 14.0342 88.5177 13.8845C88.8815 13.7347 89.1596 13.5422 89.395 13.3068C89.6303 13.0715 89.8015 12.772 89.9299 12.4511C90.0369 12.1302 90.0797 11.7665 90.0797 11.4028ZM91.1495 20.0886C91.1495 19.618 91.0639 19.1901 90.9141 18.8264C90.7644 18.4627 90.529 18.1418 90.2294 17.8851C89.9299 17.6284 89.5448 17.4358 89.074 17.3075C88.6033 17.1791 87.9828 17.0935 87.2339 17.0935H84.7947V22.8698H87.7688C88.3465 22.8698 88.8173 22.8056 89.2238 22.6987C89.6089 22.5703 89.9513 22.3991 90.2508 22.1638C90.529 21.9285 90.7644 21.629 90.9141 21.2867C91.0639 20.9444 91.1495 20.5379 91.1495 20.0886Z" fill="#003559"/>
<path d="M113.081 24.3032C113.081 24.6241 113.06 24.8808 113.038 25.0947C113.017 25.3087 112.974 25.4798 112.931 25.6296C112.888 25.7793 112.824 25.8649 112.739 25.9291C112.653 25.9933 112.567 26.0147 112.461 26.0147H103.174C102.832 26.0147 102.532 25.9077 102.297 25.7152C102.062 25.5012 101.955 25.1803 101.955 24.7097V6.31113C101.955 6.20416 101.998 6.11858 102.062 6.03301C102.126 5.94743 102.233 5.88325 102.404 5.81907C102.554 5.77628 102.768 5.7335 103.046 5.69071C103.324 5.64792 103.645 5.64792 104.052 5.64792C104.458 5.64792 104.801 5.66932 105.057 5.69071C105.314 5.7121 105.528 5.75489 105.678 5.81907C105.828 5.86186 105.956 5.94743 106.02 6.03301C106.084 6.11858 106.127 6.20416 106.127 6.31113V22.6131H112.503C112.61 22.6131 112.696 22.6345 112.781 22.6987C112.867 22.7628 112.931 22.8484 112.974 22.9768C113.017 23.1051 113.06 23.2763 113.081 23.4902C113.06 23.7255 113.081 23.9823 113.081 24.3032Z" fill="#003559"/>
<path d="M122.859 25.4584C122.859 25.5654 122.816 25.651 122.752 25.7366C122.688 25.8221 122.581 25.8863 122.41 25.9505C122.26 25.9933 122.046 26.0361 121.789 26.0788C121.533 26.1002 121.19 26.1216 120.784 26.1216C120.377 26.1216 120.056 26.1002 119.778 26.0788C119.521 26.0575 119.307 26.0147 119.136 25.9505C118.986 25.9077 118.858 25.8221 118.794 25.7366C118.73 25.651 118.687 25.5654 118.687 25.4584V6.31113C118.687 6.20416 118.73 6.11858 118.794 6.03301C118.858 5.94743 118.986 5.88325 119.136 5.81907C119.307 5.77628 119.5 5.7335 119.778 5.69071C120.035 5.66932 120.377 5.64792 120.762 5.64792C121.169 5.64792 121.511 5.66932 121.768 5.69071C122.025 5.7121 122.239 5.75489 122.389 5.81907C122.538 5.86186 122.667 5.94743 122.731 6.03301C122.795 6.11858 122.838 6.20416 122.838 6.31113V25.4584H122.859Z" fill="#003559"/>
<path d="M143.978 7.44499C143.978 7.7445 143.956 8.00122 143.935 8.21516C143.914 8.4291 143.871 8.60024 143.828 8.72861C143.785 8.85697 143.721 8.96394 143.635 9.02812C143.55 9.0923 143.464 9.11369 143.379 9.11369H138.308V25.4584C138.308 25.5654 138.265 25.651 138.201 25.7366C138.136 25.8221 138.029 25.8863 137.858 25.9505C137.708 25.9933 137.495 26.0361 137.216 26.0788C136.96 26.1002 136.617 26.1216 136.211 26.1216C135.804 26.1216 135.483 26.1002 135.205 26.0788C134.948 26.0575 134.734 26.0147 134.563 25.9505C134.413 25.9077 134.285 25.8221 134.221 25.7366C134.157 25.651 134.114 25.5654 134.114 25.4584V9.11369H129.043C128.936 9.11369 128.85 9.0923 128.786 9.02812C128.722 8.96394 128.658 8.87836 128.594 8.72861C128.551 8.60024 128.508 8.4291 128.487 8.21516C128.465 8.00122 128.444 7.7445 128.444 7.44499C128.444 7.12408 128.465 6.86736 128.487 6.65342C128.508 6.43949 128.551 6.26834 128.594 6.11858C128.636 5.99022 128.701 5.90465 128.786 5.84046C128.85 5.77628 128.957 5.75489 129.043 5.75489H143.357C143.443 5.75489 143.528 5.77628 143.614 5.84046C143.7 5.90465 143.764 5.99022 143.807 6.11858C143.849 6.24694 143.892 6.41809 143.914 6.65342C143.956 6.86736 143.978 7.12408 143.978 7.44499Z" fill="#003559"/>
<path d="M162.036 24.3888C162.036 24.6883 162.015 24.945 161.994 25.1589C161.972 25.3729 161.929 25.544 161.887 25.6724C161.844 25.8007 161.78 25.8863 161.694 25.9505C161.609 25.9933 161.523 26.0361 161.437 26.0361H149.477C149.049 26.0361 148.728 25.9077 148.514 25.6724C148.278 25.437 148.171 25.0733 148.171 24.6241V23.9395C148.171 23.7255 148.193 23.533 148.214 23.3619C148.236 23.1907 148.278 23.0196 148.343 22.827C148.407 22.6559 148.492 22.4633 148.621 22.2494C148.749 22.0355 148.899 21.8001 149.07 21.5006L156.944 9.02812H149.134C149.006 9.02812 148.899 9.00672 148.813 8.94254C148.728 8.87836 148.642 8.79279 148.599 8.66443C148.557 8.53606 148.492 8.36491 148.471 8.17237C148.45 7.95844 148.428 7.72311 148.428 7.42359C148.428 7.10269 148.45 6.84597 148.471 6.63203C148.492 6.41809 148.535 6.24694 148.599 6.11858C148.664 5.99022 148.728 5.90465 148.813 5.84046C148.899 5.79768 149.006 5.75489 149.134 5.75489H160.346C160.774 5.75489 161.095 5.86186 161.288 6.0758C161.502 6.28973 161.587 6.61064 161.587 6.99572V7.76589C161.587 8.04401 161.566 8.30073 161.544 8.49328C161.523 8.70721 161.48 8.89976 161.395 9.0923C161.33 9.28484 161.245 9.47738 161.116 9.69132C161.009 9.90526 160.86 10.1406 160.667 10.4187L152.921 22.72H161.395C161.587 22.72 161.737 22.8484 161.844 23.1051C161.994 23.3405 162.036 23.7897 162.036 24.3888Z" fill="#003559"/>
<path d="M94.2306 45.9535C94.2306 46.2531 94.2092 46.5098 94.1878 46.7237C94.1664 46.9376 94.1236 47.1088 94.0808 47.2372C94.0381 47.3655 93.9739 47.4725 93.8883 47.5367C93.8027 47.6009 93.7171 47.6222 93.6315 47.6222H88.5605V63.967C88.5605 64.074 88.5177 64.1595 88.4535 64.2451C88.3893 64.3307 88.2824 64.3949 88.1112 64.459C87.9614 64.5018 87.7474 64.5446 87.4693 64.5874C87.1911 64.6302 86.8702 64.6302 86.4637 64.6302C86.0571 64.6302 85.7362 64.6088 85.458 64.5874C85.1799 64.566 84.9873 64.5232 84.8161 64.459C84.6663 64.4163 84.538 64.3307 84.4738 64.2451C84.4096 64.1595 84.3668 64.074 84.3668 63.967V47.6222H79.2958C79.1888 47.6222 79.1032 47.6009 79.039 47.5367C78.9748 47.4725 78.9107 47.3869 78.8465 47.2372C78.8037 47.1088 78.7609 46.9376 78.7395 46.7237C78.7181 46.5098 78.6967 46.2531 78.6967 45.9535C78.6967 45.6326 78.7181 45.3759 78.7395 45.162C78.7609 44.948 78.8037 44.7769 78.8465 44.6271C78.8893 44.4988 78.9534 44.4132 79.039 44.349C79.1032 44.2848 79.2102 44.2634 79.2958 44.2634H93.5887C93.6743 44.2634 93.7599 44.2848 93.8455 44.349C93.9311 44.4132 93.9953 44.4988 94.038 44.6271C94.0808 44.7555 94.1236 44.9266 94.145 45.162C94.2092 45.3759 94.2306 45.6326 94.2306 45.9535Z" fill="#003559"/>
<path d="M114.878 64.0098C114.878 64.1167 114.857 64.2237 114.814 64.3093C114.771 64.3949 114.664 64.459 114.515 64.5018C114.365 64.5446 114.129 64.5874 113.83 64.6088C113.53 64.6302 113.124 64.6302 112.589 64.6302C112.14 64.6302 111.797 64.6302 111.54 64.6088C111.284 64.5874 111.07 64.5446 110.92 64.5018C110.77 64.4377 110.663 64.3735 110.599 64.2879C110.535 64.2023 110.492 64.0954 110.449 63.967L108.631 59.4315C108.417 58.9181 108.203 58.4688 107.989 58.0623C107.775 57.6559 107.539 57.335 107.283 57.0568C107.026 56.8001 106.726 56.5862 106.405 56.4578C106.063 56.3295 105.678 56.2439 105.25 56.2439H103.966V63.967C103.966 64.074 103.923 64.1595 103.859 64.2451C103.795 64.3307 103.688 64.3949 103.517 64.459C103.367 64.5018 103.153 64.5446 102.896 64.5874C102.639 64.6088 102.297 64.6302 101.891 64.6302C101.484 64.6302 101.163 64.6088 100.885 64.5874C100.607 64.566 100.414 64.5232 100.243 64.459C100.093 64.4163 99.9863 64.3307 99.9221 64.2451C99.8579 64.1595 99.8365 64.074 99.8365 63.967V45.5685C99.8365 45.1192 99.9435 44.7769 100.179 44.563C100.414 44.349 100.714 44.2634 101.056 44.2634H106.298C106.833 44.2634 107.261 44.2634 107.625 44.2848C107.967 44.3062 108.288 44.3276 108.566 44.3704C109.379 44.4774 110.107 44.6913 110.77 44.9694C111.433 45.2476 111.968 45.6112 112.439 46.0819C112.888 46.5312 113.231 47.066 113.488 47.6864C113.744 48.3068 113.851 49.0128 113.851 49.8258C113.851 50.5104 113.766 51.1308 113.595 51.687C113.423 52.2433 113.167 52.7353 112.824 53.1846C112.482 53.6339 112.075 53.9976 111.583 54.3185C111.091 54.6394 110.535 54.8961 109.914 55.11C110.214 55.2598 110.492 55.4309 110.77 55.6449C111.027 55.8588 111.284 56.1155 111.519 56.415C111.754 56.7145 111.968 57.0568 112.182 57.4419C112.396 57.827 112.589 58.2549 112.803 58.7255L114.515 62.7262C114.664 63.1326 114.771 63.4108 114.836 63.6033C114.857 63.753 114.878 63.9028 114.878 64.0098ZM109.572 50.2537C109.572 49.5905 109.422 49.0128 109.123 48.5636C108.823 48.1143 108.331 47.772 107.625 47.6009C107.411 47.5581 107.176 47.5153 106.919 47.4725C106.662 47.4297 106.277 47.4297 105.806 47.4297H103.966V53.1846H106.063C106.641 53.1846 107.154 53.1204 107.603 52.9707C108.053 52.8209 108.417 52.6284 108.695 52.3716C108.994 52.1149 109.208 51.8154 109.358 51.4517C109.486 51.088 109.572 50.6815 109.572 50.2537Z" fill="#003559"/>
<path d="M137.73 63.0043C137.858 63.3894 137.944 63.6675 137.965 63.9028C137.987 64.1381 137.965 64.2879 137.837 64.3949C137.73 64.5018 137.516 64.566 137.216 64.6088C136.917 64.6302 136.532 64.6516 136.018 64.6516C135.483 64.6516 135.077 64.6516 134.777 64.6302C134.478 64.6088 134.242 64.5874 134.092 64.5446C133.943 64.5018 133.836 64.4376 133.772 64.3521C133.707 64.2665 133.665 64.1595 133.622 64.0312L132.252 59.9664H124.635L123.351 63.9242C123.309 64.074 123.244 64.2023 123.18 64.2879C123.116 64.3949 123.009 64.459 122.859 64.5232C122.709 64.5874 122.496 64.6302 122.217 64.6302C121.939 64.6516 121.575 64.6516 121.126 64.6516C120.655 64.6516 120.27 64.6302 119.992 64.6088C119.714 64.5874 119.543 64.5018 119.436 64.3735C119.329 64.2451 119.286 64.074 119.329 63.86C119.372 63.6461 119.436 63.3466 119.564 62.9829L125.812 44.9908C125.876 44.8197 125.94 44.6699 126.026 44.563C126.112 44.456 126.24 44.3704 126.432 44.3062C126.625 44.2421 126.86 44.2207 127.203 44.1993C127.524 44.1779 127.952 44.1779 128.487 44.1779C129.107 44.1779 129.599 44.1779 129.963 44.1993C130.327 44.2207 130.605 44.2421 130.819 44.3062C131.033 44.3704 131.161 44.456 131.268 44.563C131.354 44.6699 131.439 44.8411 131.503 45.0336L137.73 63.0043ZM128.422 48.1357L125.534 56.7573H131.29L128.422 48.1357Z" fill="#003559"/>
<path d="M160.624 54.1045C160.624 55.9658 160.389 57.5489 159.897 58.8753C159.405 60.2017 158.72 61.2714 157.8 62.1057C156.901 62.9401 155.789 63.5605 154.483 63.9456C153.178 64.3307 151.638 64.5232 149.84 64.5232H145.005C144.662 64.5232 144.363 64.4163 144.127 64.2237C143.892 64.0098 143.785 63.6889 143.785 63.2182V45.5685C143.785 45.1192 143.892 44.7769 144.127 44.563C144.363 44.349 144.662 44.2634 145.005 44.2634H150.204C152.001 44.2634 153.542 44.4774 154.804 44.9053C156.067 45.3331 157.115 45.9535 157.992 46.7879C158.848 47.6222 159.512 48.6491 159.961 49.8686C160.389 51.0666 160.624 52.5 160.624 54.1045ZM156.345 54.2329C156.345 53.2702 156.238 52.3716 156.003 51.5587C155.767 50.7243 155.425 50.0183 154.911 49.4193C154.419 48.8203 153.777 48.3496 153.007 48.0073C152.237 47.665 151.21 47.4939 149.947 47.4939H147.872V61.2928H150.012C151.146 61.2928 152.087 61.143 152.857 60.8435C153.628 60.544 154.269 60.1161 154.783 59.5171C155.297 58.9181 155.682 58.1907 155.938 57.3136C156.195 56.4364 156.345 55.4095 156.345 54.2329Z" fill="#003559"/>
<path d="M171.344 63.967C171.344 64.074 171.301 64.1595 171.237 64.2451C171.173 64.3307 171.066 64.3949 170.895 64.459C170.745 64.5018 170.531 64.5446 170.274 64.5874C170.017 64.6088 169.675 64.6302 169.268 64.6302C168.862 64.6302 168.541 64.6088 168.263 64.5874C168.006 64.566 167.792 64.5232 167.621 64.459C167.471 64.4163 167.343 64.3307 167.279 64.2451C167.214 64.1595 167.172 64.074 167.172 63.967V44.8197C167.172 44.7127 167.214 44.6271 167.279 44.5416C167.343 44.456 167.471 44.3918 167.621 44.3276C167.792 44.2848 167.985 44.2421 168.263 44.1993C168.52 44.1779 168.862 44.1565 169.247 44.1565C169.654 44.1565 169.996 44.1779 170.253 44.1993C170.509 44.2207 170.723 44.2634 170.873 44.3276C171.023 44.3704 171.151 44.456 171.216 44.5416C171.28 44.6271 171.323 44.7127 171.323 44.8197V63.967H171.344Z" fill="#003559"/>
<path d="M195.693 63.0898C195.693 63.3252 195.65 63.5391 195.565 63.7317C195.479 63.9242 195.372 64.074 195.223 64.2023C195.073 64.3307 194.923 64.4163 194.73 64.4804C194.538 64.5446 194.345 64.566 194.153 64.566H192.398C192.034 64.566 191.714 64.5232 191.457 64.459C191.2 64.3949 190.943 64.2451 190.729 64.0526C190.515 63.86 190.28 63.6033 190.087 63.261C189.873 62.9401 189.638 62.5122 189.381 61.9774L184.332 52.5C184.032 51.9438 183.733 51.3233 183.433 50.6815C183.133 50.0183 182.855 49.3979 182.62 48.7775H182.599C182.641 49.5263 182.663 50.2751 182.684 51.0238C182.706 51.7726 182.706 52.5428 182.706 53.3343V63.9456C182.706 64.0526 182.684 64.1381 182.62 64.2237C182.556 64.3093 182.47 64.3735 182.32 64.4377C182.171 64.5018 181.999 64.5446 181.743 64.566C181.507 64.5874 181.186 64.6088 180.823 64.6088C180.459 64.6088 180.159 64.5874 179.924 64.566C179.689 64.5446 179.496 64.4804 179.368 64.4377C179.239 64.3735 179.132 64.3093 179.09 64.2237C179.047 64.1381 179.004 64.0526 179.004 63.9456V45.7182C179.004 45.2262 179.154 44.8625 179.432 44.6057C179.71 44.3704 180.074 44.2421 180.48 44.2421H182.684C183.091 44.2421 183.412 44.2848 183.69 44.349C183.968 44.4132 184.203 44.5202 184.417 44.6913C184.631 44.8625 184.824 45.055 185.016 45.3331C185.209 45.6112 185.402 45.9535 185.594 46.36L189.552 53.7622C189.788 54.2115 190.002 54.6608 190.237 55.0886C190.451 55.5165 190.686 55.9658 190.879 56.3936C191.093 56.8215 191.286 57.2494 191.5 57.6773C191.692 58.1051 191.885 58.5116 192.077 58.9395H192.099C192.077 58.2121 192.034 57.4419 192.034 56.6504C192.013 55.8588 192.013 55.0886 192.013 54.3826V44.8625C192.013 44.7555 192.034 44.6699 192.099 44.5843C192.163 44.4988 192.27 44.4346 192.42 44.3704C192.569 44.3062 192.762 44.2634 192.997 44.2421C193.233 44.2207 193.554 44.1993 193.917 44.1993C194.281 44.1993 194.581 44.2207 194.816 44.2421C195.051 44.2634 195.244 44.3062 195.372 44.3704C195.501 44.4346 195.586 44.4988 195.65 44.5843C195.693 44.6699 195.736 44.7555 195.736 44.8625V63.0898H195.693Z" fill="#003559"/>
<path d="M219.593 47.4083C219.593 47.7078 219.572 47.9646 219.55 48.1999C219.529 48.4138 219.486 48.585 219.444 48.7347C219.401 48.8631 219.337 48.9487 219.272 49.0128C219.208 49.0556 219.123 49.0984 219.037 49.0984C218.909 49.0984 218.673 49.0128 218.374 48.8203C218.074 48.6278 217.668 48.4352 217.175 48.1999C216.683 47.9646 216.084 47.772 215.378 47.5795C214.672 47.3869 213.88 47.3014 212.96 47.3014C211.976 47.3014 211.099 47.4725 210.286 47.8148C209.494 48.1571 208.809 48.6278 208.253 49.2482C207.697 49.8686 207.247 50.6174 206.948 51.4945C206.648 52.3716 206.499 53.3344 206.499 54.3826C206.499 55.5379 206.648 56.5648 206.969 57.4419C207.269 58.3191 207.718 59.0679 208.253 59.6669C208.809 60.2659 209.473 60.7152 210.243 61.0147C211.013 61.3142 211.891 61.4639 212.811 61.4639C213.26 61.4639 213.731 61.4212 214.18 61.3142C214.629 61.2072 215.057 61.0575 215.442 60.8435V56.1369H211.612C211.42 56.1369 211.27 56.03 211.163 55.7946C211.056 55.5593 211.013 55.1528 211.013 54.5966C211.013 54.2971 211.035 54.0617 211.056 53.8692C211.077 53.6767 211.12 53.5055 211.163 53.3985C211.206 53.2702 211.27 53.1846 211.356 53.1418C211.42 53.0776 211.505 53.0562 211.612 53.0562H218.459C218.63 53.0562 218.78 53.0776 218.909 53.1418C219.037 53.206 219.144 53.2916 219.251 53.3985C219.358 53.5055 219.422 53.6553 219.486 53.805C219.529 53.9762 219.572 54.1473 219.572 54.3613V62.4267C219.572 62.7476 219.508 63.0043 219.401 63.2396C219.294 63.4749 219.058 63.6675 218.737 63.7959C218.395 63.9242 217.967 64.074 217.475 64.2237C216.983 64.3735 216.448 64.5018 215.913 64.6088C215.378 64.7158 214.822 64.8013 214.287 64.8441C213.731 64.8869 213.196 64.9297 212.639 64.9297C211.013 64.9297 209.58 64.6944 208.296 64.2237C207.012 63.7531 205.942 63.0899 205.044 62.2127C204.145 61.3356 203.482 60.2445 203.011 58.9823C202.54 57.7201 202.305 56.2653 202.305 54.6608C202.305 52.9921 202.562 51.5159 203.054 50.1895C203.546 48.8631 204.273 47.7506 205.193 46.8307C206.113 45.9108 207.226 45.2048 208.531 44.7127C209.836 44.2207 211.291 43.9853 212.875 43.9853C213.752 43.9853 214.544 44.0495 215.271 44.1565C215.999 44.2848 216.619 44.4132 217.154 44.6058C217.689 44.7769 218.138 44.9694 218.502 45.162C218.866 45.3545 219.101 45.5257 219.251 45.6754C219.401 45.8252 219.486 46.0177 219.55 46.2958C219.572 46.4884 219.593 46.8949 219.593 47.4083Z" fill="#003559"/>
<path d="M239 58.4474C239 59.5171 238.807 60.4584 238.401 61.25C237.994 62.063 237.459 62.7262 236.796 63.261C236.111 63.7958 235.32 64.2023 234.421 64.4804C233.522 64.7586 232.538 64.8869 231.511 64.8869C230.805 64.8869 230.163 64.8227 229.564 64.7158C228.965 64.6088 228.43 64.459 227.981 64.3093C227.531 64.1381 227.146 63.9884 226.825 63.7958C226.526 63.6247 226.29 63.4535 226.162 63.3252C226.034 63.1968 225.927 63.0043 225.862 62.7476C225.798 62.4908 225.777 62.1271 225.777 61.6351C225.777 61.3142 225.777 61.0361 225.798 60.8221C225.82 60.6082 225.862 60.4156 225.905 60.2873C225.948 60.1589 226.012 60.052 226.098 59.9878C226.183 59.9236 226.269 59.9022 226.376 59.9022C226.526 59.9022 226.718 59.9878 226.997 60.1589C227.253 60.3301 227.596 60.5226 228.024 60.7366C228.451 60.9505 228.944 61.143 229.521 61.3142C230.099 61.4853 230.762 61.5709 231.533 61.5709C232.025 61.5709 232.474 61.5067 232.881 61.3998C233.287 61.2714 233.608 61.1002 233.886 60.8863C234.164 60.6724 234.378 60.3943 234.528 60.0733C234.678 59.7524 234.742 59.3888 234.742 58.9823C234.742 58.533 234.614 58.1265 234.357 57.8056C234.1 57.4847 233.779 57.1852 233.373 56.9285C232.966 56.6718 232.517 56.4364 232.003 56.2011C231.49 55.9872 230.955 55.7304 230.42 55.4951C229.885 55.2384 229.35 54.9603 228.837 54.6394C228.323 54.3185 227.874 53.9334 227.467 53.5055C227.061 53.0562 226.74 52.5428 226.483 51.9224C226.226 51.3233 226.098 50.596 226.098 49.7402C226.098 48.7775 226.269 47.9218 226.633 47.173C226.996 46.4456 227.489 45.8252 228.088 45.3331C228.708 44.8411 229.414 44.4774 230.249 44.2421C231.083 44.0067 231.961 43.8784 232.881 43.8784C233.351 43.8784 233.843 43.9212 234.314 43.9853C234.785 44.0495 235.234 44.1565 235.662 44.2848C236.09 44.4132 236.454 44.5416 236.775 44.7127C237.096 44.8625 237.31 44.9908 237.417 45.0978C237.524 45.2048 237.588 45.2903 237.631 45.3545C237.673 45.4187 237.695 45.5257 237.716 45.654C237.738 45.7824 237.759 45.9322 237.78 46.1033C237.78 46.2958 237.802 46.5098 237.802 46.7879C237.802 47.0874 237.802 47.3441 237.78 47.5581C237.759 47.772 237.738 47.9432 237.695 48.0715C237.652 48.1999 237.609 48.3068 237.545 48.371C237.481 48.4352 237.395 48.4566 237.267 48.4566C237.16 48.4566 236.967 48.3924 236.711 48.2427C236.454 48.0929 236.154 47.9432 235.791 47.772C235.427 47.6009 234.999 47.4511 234.528 47.3013C234.057 47.1516 233.522 47.0874 232.945 47.0874C232.495 47.0874 232.11 47.1516 231.768 47.2586C231.426 47.3655 231.147 47.5153 230.933 47.7078C230.698 47.9004 230.548 48.1357 230.441 48.4138C230.334 48.6919 230.27 48.9701 230.27 49.2696C230.27 49.7188 230.399 50.1039 230.634 50.4462C230.869 50.7671 231.212 51.0666 231.618 51.3233C232.025 51.5801 232.495 51.8154 233.03 52.0507C233.544 52.2861 234.079 52.5214 234.635 52.7567C235.17 53.0134 235.705 53.2916 236.24 53.6125C236.753 53.9334 237.224 54.3185 237.631 54.7463C238.037 55.1956 238.358 55.7091 238.615 56.3081C238.872 56.9071 239 57.6345 239 58.4474Z" fill="#003559"/>
</g>
<defs>
<clipPath id="clip0_171_35">
<rect width="239" height="70" fill="white"/>
</clipPath>
</defs>
</svg>
